<?xml version="1.0" encoding="UTF-8" standalone="no"?>
<!DOCTYPE svg PUBLIC "-//W3C//DTD SVG 1.1//EN" "http://www.w3.org/Graphics/SVG/1.1/DTD/svg11.dtd">
<svg width="100%" height="100%" viewBox="0 0 512 512" version="1.1" xmlns="http://www.w3.org/2000/svg" xmlns:xlink="http://www.w3.org/1999/xlink" xml:space="preserve" xmlns:serif="http://www.serif.com/" style="fill-rule:evenodd;clip-rule:evenodd;stroke-linejoin:round;stroke-miterlimit:2;">
    <path d="M232,232L232,112C232,98.754 242.754,88 256,88C269.246,88 280,98.754 280,112L280,232L400,232C413.246,232 424,242.754 424,256C424,269.246 413.246,280 400,280L280,280L280,400C280,413.246 269.246,424 256,424C242.754,424 232,413.246 232,400L232,280L112,280C98.754,280 88,269.246 88,256C88,242.754 98.754,232 112,232L232,232Z"/>
</svg>
